<svg width="32" height="32" viewBox="0 0 32 32" fill="none" xmlns="http://www.w3.org/2000/svg">
<path fill-rule="evenodd" clip-rule="evenodd" d="M6.5 6.5V13.3333C6.5 22.4883 14.0057 25.7273 16 26.4246C17.9943 25.7273 25.5 22.4883 25.5 13.3333V6.5H6.5ZM4.23223 4.23223C4.70107 3.76339 5.33696 3.5 6 3.5H26C26.663 3.5 27.2989 3.76339 27.7678 4.23223C28.2366 4.70108 28.5 5.33696 28.5 6V13.3333C28.5 24.8929 18.6611 28.7032 16.7855 29.3263C16.2761 29.4992 15.7239 29.4992 15.2145 29.3263C13.3389 28.7032 3.5 24.8929 3.5 13.3333V6C3.5 5.33696 3.76339 4.70107 4.23223 4.23223Z" fill="black"/>
<path fill-rule="evenodd" clip-rule="evenodd" d="M22.585 10.9643C23.157 11.5635 23.135 12.513 22.5357 13.085L15.2023 20.085C14.6227 20.6383 13.7105 20.6383 13.1309 20.085L9.46428 16.585C8.86504 16.013 8.84296 15.0635 9.41498 14.4643C9.98699 13.865 10.9365 13.843 11.5357 14.415L14.1666 16.9263L20.4643 10.915C21.0635 10.343 22.013 10.365 22.585 10.9643Z" fill="black"/>
</svg>
